<svg xmlns="http://www.w3.org/2000/svg" viewBox="0 0 700 162.3"><g fill="#FFF"><path d="M61.1 130.2c-1 0-2-.5-2.3-1.7l-9.4-28.3h-35l-9.5 28.3c-.4 1.2-1.3 1.7-2.3 1.7-1.2 0-2.4-.9-2.4-2.3 0-.2 0-.5.1-.9l29.3-87.9c.5-1.3 1.5-2.1 2.3-2.1 1 0 1.8.7 2.3 2.1L63.4 127c.1.2.1.6.1.9 0 1.4-1.2 2.3-2.4 2.3zM31.8 47.5L15.9 95.2h31.8L31.8 47.5zM106 131.4c-16.7 0-30.3-13.6-30.3-30.3V39.8c0-1.6 1.2-2.4 2.4-2.4s2.4.9 2.4 2.4v61.3c0 14 11.4 25.4 25.4 25.4s25.4-11.4 25.4-25.4V39.8c0-1.6 1.2-2.4 2.4-2.4s2.4.9 2.4 2.4v61.3c.2 16.7-13.4 30.3-30.1 30.3zM205.5 130.2c-.7 0-1.5-.2-2-1.1l-21.4-33.7c-1.1.1-2.2.2-3.4.2h-19.3v32.1c0 1.6-1.2 2.4-2.4 2.4s-2.4-.9-2.4-2.4V39.8c0-1.3 1.1-2.4 2.4-2.4h21.7c16.1 0 29.2 12.9 29.2 29.1 0 13.1-8.8 24.2-20.6 27.8l20.4 32.1c.2.5.4 1 .4 1.3 0 1.4-1.2 2.5-2.6 2.5zm-26.7-88h-19.3v48.5h19.3c1.2 0 2.4-.1 3.7-.2.4-.1.7-.2 1.1-.2h.2c11-2.3 19.3-12.1 19.3-23.8 0-13.5-10.9-24.3-24.3-24.3zM278.9 130.2c-1 0-2-.5-2.3-1.7l-9.4-28.3h-35l-9.5 28.3c-.4 1.2-1.3 1.7-2.3 1.7-1.2 0-2.4-.9-2.4-2.3 0-.2 0-.5.1-.9l29.3-87.9c.5-1.3 1.5-2.1 2.3-2.1 1 0 1.8.7 2.3 2.1l29.3 87.9c.1.2.1.6.1.9 0 1.4-1.2 2.3-2.5 2.3zm-29.3-82.7l-15.9 47.8h31.8l-15.9-47.8z"/></g><g fill="#FFF"><path d="M525.4 130.2h-45.8c-1.3 0-2.4-1.1-2.4-2.4v-88c0-1.3 1.1-2.4 2.4-2.4h45.8c1.6 0 2.4 1.2 2.4 2.4s-.9 2.4-2.4 2.4H482v36.9h39.7c1.6 0 2.4 1.2 2.4 2.4s-.9 2.4-2.4 2.4H482v41.3h43.4c1.6 0 2.4 1.2 2.4 2.4s-.8 2.6-2.4 2.6zM599.7 130.5c-.7 0-1.7-.5-2.3-1.6l-48.7-80.4v79.1c0 1.6-1.2 2.4-2.4 2.4s-2.4-.9-2.4-2.4V39.8c0-1.8 1-2.8 2.2-2.8.7 0 1.7.5 2.3 1.6l48.7 80.4V39.8c0-1.6 1.2-2.4 2.4-2.4s2.4.9 2.4 2.4v87.9c0 1.8-1 2.8-2.2 2.8zM673.9 42.2H647v85.5c0 1.6-1.2 2.4-2.4 2.4s-2.4-.9-2.4-2.4V42.2h-26.9c-1.6 0-2.4-1.2-2.4-2.4s.9-2.4 2.4-2.4h58.6c1.6 0 2.4 1.2 2.4 2.4.1 1.2-.8 2.4-2.4 2.4z"/></g><path fill="#FFF" d="M697.6 130.2c-1.2 0-2.4-.9-2.4-2.4v-88c0-1.6 1.2-2.4 2.4-2.4s2.4.9 2.4 2.4v87.9c0 1.6-1.2 2.5-2.4 2.5zM455.3 67.9s.2-22.6-19.9-42.8C415.2 4.9 392.6 5.2 392.6 5.2h-91c-1.9 0-3.4 1.5-3.4 3.4v150.2c0 1.9 1.5 3.4 3.4 3.4h150.2c1.9 0 3.4-1.5 3.4-3.4l.1-90.9zm-71.1-25.7h-43.4v36.9h39.7c1.6 0 2.4 1.2 2.4 2.4s-.9 2.4-2.4 2.4h-39.7v43.7c0 1.6-1.2 2.4-2.4 2.4s-2.4-.9-2.4-2.4V39.8c0-1.3 1.1-2.4 2.4-2.4h45.8c1.6 0 2.4 1.2 2.4 2.4s-.8 2.4-2.4 2.4zm29.8 85.5c0 1.6-1.2 2.4-2.4 2.4s-2.4-.9-2.4-2.4V39.8c0-1.6 1.2-2.4 2.4-2.4s2.4.9 2.4 2.4v87.9zM456.3 38.8c-2.7-5.9-7.2-12.9-14.5-20.2-7.4-7.4-14.4-11.8-20.3-14.5-.8-.3-1.3-1.1-1.3-2 0-1.2 1-2.1 2.2-2.1h36.7c.8 0 1.4.6 1.4 1.4v36.7c0 1.2-1 2.2-2.2 2.2-1.5-.1-2-1.5-2-1.5z"/></svg>